<svg id="visual" viewBox="0 0 960 540" width="960" height="540" xmlns="http://www.w3.org/2000/svg" xmlns:xlink="http://www.w3.org/1999/xlink" version="1.1"><rect x="0" y="0" width="960" height="540" fill="#001220"></rect><defs><linearGradient id="grad1_0" x1="43.8%" y1="0%" x2="100%" y2="100%"><stop offset="14.444444444444446%" stop-color="#fbae3c" stop-opacity="1"></stop><stop offset="85.55555555555554%" stop-color="#fbae3c" stop-opacity="1"></stop></linearGradient></defs><defs><linearGradient id="grad1_1" x1="43.8%" y1="0%" x2="100%" y2="100%"><stop offset="14.444444444444446%" stop-color="#fbae3c" stop-opacity="1"></stop><stop offset="85.55555555555554%" stop-color="#96446e" stop-opacity="1"></stop></linearGradient></defs><defs><linearGradient id="grad1_2" x1="43.8%" y1="0%" x2="100%" y2="100%"><stop offset="14.444444444444446%" stop-color="#001220" stop-opacity="1"></stop><stop offset="85.55555555555554%" stop-color="#96446e" stop-opacity="1"></stop></linearGradient></defs><defs><linearGradient id="grad2_0" x1="0%" y1="0%" x2="56.3%" y2="100%"><stop offset="14.444444444444446%" stop-color="#fbae3c" stop-opacity="1"></stop><stop offset="85.55555555555554%" stop-color="#fbae3c" stop-opacity="1"></stop></linearGradient></defs><defs><linearGradient id="grad2_1" x1="0%" y1="0%" x2="56.3%" y2="100%"><stop offset="14.444444444444446%" stop-color="#96446e" stop-opacity="1"></stop><stop offset="85.55555555555554%" stop-color="#fbae3c" stop-opacity="1"></stop></linearGradient></defs><defs><linearGradient id="grad2_2" x1="0%" y1="0%" x2="56.3%" y2="100%"><stop offset="14.444444444444446%" stop-color="#96446e" stop-opacity="1"></stop><stop offset="85.55555555555554%" stop-color="#001220" stop-opacity="1"></stop></linearGradient></defs><g transform="translate(960, 0)"><path d="M0 432C-32.9 430.4 -65.7 428.8 -94.6 414.3C-123.4 399.9 -148.2 372.4 -167.5 347.8C-186.8 323.1 -200.6 301.2 -233.8 293.2C-267 285.2 -319.6 291.2 -337.8 269.3C-355.9 247.5 -339.6 197.7 -338.8 163.1C-337.9 128.6 -352.4 109.2 -370.5 84.6C-388.6 59.9 -410.3 30 -432 0L0 0Z" fill="#3d3056"></path><path d="M0 288C-21.9 286.9 -43.8 285.9 -63 276.2C-82.3 266.6 -98.8 248.3 -111.7 231.8C-124.5 215.4 -133.7 200.8 -155.9 195.5C-178 190.1 -213.1 194.2 -225.2 179.6C-237.3 165 -226.4 131.8 -225.8 108.8C-225.3 85.7 -234.9 72.8 -247 56.4C-259 39.9 -273.5 20 -288 0L0 0Z" fill="#e1685e"></path><path d="M0 144C-11 143.5 -21.9 142.9 -31.5 138.1C-41.1 133.3 -49.4 124.1 -55.8 115.9C-62.3 107.7 -66.9 100.4 -77.9 97.7C-89 95.1 -106.5 97.1 -112.6 89.8C-118.6 82.5 -113.2 65.9 -112.9 54.4C-112.6 42.9 -117.5 36.4 -123.5 28.2C-129.5 20 -136.8 10 -144 0L0 0Z" fill="#fbae3c"></path></g><g transform="translate(0, 540)"><path d="M0 -432C31.6 -426.9 63.2 -421.8 94.3 -413.4C125.5 -404.9 156.3 -393.2 179.2 -372.1C202.1 -351 217 -320.6 241.3 -302.6C265.6 -284.5 299.2 -278.8 329.2 -262.5C359.1 -246.2 385.3 -219.4 389.2 -187.4C393.2 -155.5 374.9 -118.4 378.3 -86.3C381.7 -54.2 406.8 -27.1 432 0L0 0Z" fill="#3d3056"></path><path d="M0 -288C21.1 -284.6 42.1 -281.2 62.9 -275.6C83.7 -270 104.2 -262.1 119.5 -248.1C134.7 -234 144.7 -213.8 160.9 -201.7C177.1 -189.7 199.5 -185.8 219.4 -175C239.4 -164.1 256.8 -146.3 259.5 -125C262.1 -103.7 249.9 -79 252.2 -57.6C254.5 -36.2 271.2 -18.1 288 0L0 0Z" fill="#e1685e"></path><path d="M0 -144C10.5 -142.3 21.1 -140.6 31.4 -137.8C41.8 -135 52.1 -131.1 59.7 -124C67.4 -117 72.3 -106.9 80.4 -100.9C88.5 -94.8 99.7 -92.9 109.7 -87.5C119.7 -82.1 128.4 -73.1 129.7 -62.5C131.1 -51.8 125 -39.5 126.1 -28.8C127.2 -18.1 135.6 -9 144 0L0 0Z" fill="#fbae3c"></path></g></svg>